<mxfile host="app.diagrams.net" modified="2021-02-08T15:32:34.733Z" agent="5.0 (Windows NT 10.0; Win64; x64) AppleWebKit/537.36 (KHTML, like Gecko) Chrome/88.0.4324.146 Safari/537.36" etag="DbWUS2DwduyZqSpl9SYz" version="14.3.0" type="github" pages="2">
  <diagram id="6h6FBcipSGII3c4NiB8Y" name="Cas d&#39;utilisation">
    <mxGraphModel dx="1689" dy="3429" grid="1" gridSize="10" guides="1" tooltips="1" connect="1" arrows="1" fold="1" page="1" pageScale="1" pageWidth="827" pageHeight="1169" math="0" shadow="0">
      <root>
        <mxCell id="0" />
        <mxCell id="1" parent="0" />
        <mxCell id="1h5ahABLW1QTgXtnkLHX-1" value="" style="rounded=0;whiteSpace=wrap;html=1;direction=south;" parent="1" vertex="1">
          <mxGeometry x="220" y="-1430" width="1150" height="2690" as="geometry" />
        </mxCell>
        <mxCell id="1h5ahABLW1QTgXtnkLHX-2" value="utilisateur" style="shape=umlActor;verticalLabelPosition=bottom;verticalAlign=top;html=1;fillColor=#fff2cc;strokeColor=#d6b656;" parent="1" vertex="1">
          <mxGeometry x="170" y="960" width="30" height="60" as="geometry" />
        </mxCell>
        <mxCell id="1h5ahABLW1QTgXtnkLHX-4" value="professionel" style="shape=umlActor;verticalLabelPosition=bottom;verticalAlign=top;html=1;fillColor=#dae8fc;strokeColor=#6c8ebf;" parent="1" vertex="1">
          <mxGeometry x="170" y="40" width="30" height="60" as="geometry" />
        </mxCell>
        <mxCell id="1h5ahABLW1QTgXtnkLHX-5" value="particulier" style="shape=umlActor;verticalLabelPosition=bottom;verticalAlign=top;html=1;fillColor=#f8cecc;strokeColor=#b85450;" parent="1" vertex="1">
          <mxGeometry x="170" y="505" width="30" height="60" as="geometry" />
        </mxCell>
        <mxCell id="1h5ahABLW1QTgXtnkLHX-6" value="commercial" style="shape=umlActor;verticalLabelPosition=bottom;verticalAlign=top;html=1;fillColor=#d5e8d4;strokeColor=#82b366;" parent="1" vertex="1">
          <mxGeometry x="170" y="-880" width="30" height="60" as="geometry" />
        </mxCell>
        <mxCell id="1h5ahABLW1QTgXtnkLHX-8" value="patron" style="shape=umlActor;verticalLabelPosition=bottom;verticalAlign=top;html=1;fillColor=#d80073;strokeColor=#A50040;fontColor=#ffffff;" parent="1" vertex="1">
          <mxGeometry x="160" y="-1290" width="30" height="60" as="geometry" />
        </mxCell>
        <mxCell id="1h5ahABLW1QTgXtnkLHX-15" value="inscription" style="ellipse;whiteSpace=wrap;html=1;fillColor=#fff2cc;strokeColor=#d6b656;" parent="1" vertex="1">
          <mxGeometry x="370" y="820" width="140" height="70" as="geometry" />
        </mxCell>
        <mxCell id="1h5ahABLW1QTgXtnkLHX-16" value="consultation catalogue" style="ellipse;whiteSpace=wrap;html=1;fillColor=#fff2cc;strokeColor=#d6b656;" parent="1" vertex="1">
          <mxGeometry x="360" y="950" width="140" height="70" as="geometry" />
        </mxCell>
        <mxCell id="1h5ahABLW1QTgXtnkLHX-17" value="crÃ©ation d&#39;un panier" style="ellipse;whiteSpace=wrap;html=1;fillColor=#fff2cc;strokeColor=#d6b656;" parent="1" vertex="1">
          <mxGeometry x="370" y="1120" width="140" height="70" as="geometry" />
        </mxCell>
        <mxCell id="1h5ahABLW1QTgXtnkLHX-20" value="Connexion" style="ellipse;whiteSpace=wrap;html=1;fillColor=#e1d5e7;strokeColor=#9673a6;" parent="1" vertex="1">
          <mxGeometry x="840" y="820" width="140" height="70" as="geometry" />
        </mxCell>
        <mxCell id="1h5ahABLW1QTgXtnkLHX-21" value="validation panier" style="ellipse;whiteSpace=wrap;html=1;fillColor=#f8cecc;strokeColor=#b85450;" parent="1" vertex="1">
          <mxGeometry x="370" y="500" width="140" height="70" as="geometry" />
        </mxCell>
        <mxCell id="1h5ahABLW1QTgXtnkLHX-24" value="" style="endArrow=block;dashed=1;endFill=0;endSize=12;html=1;exitX=0.5;exitY=0.5;exitDx=0;exitDy=0;exitPerimeter=0;entryX=0.5;entryY=0;entryDx=0;entryDy=0;entryPerimeter=0;" parent="1" source="1h5ahABLW1QTgXtnkLHX-5" target="1h5ahABLW1QTgXtnkLHX-2" edge="1">
          <mxGeometry width="160" relative="1" as="geometry">
            <mxPoint x="220" y="820" as="sourcePoint" />
            <mxPoint x="380" y="820" as="targetPoint" />
          </mxGeometry>
        </mxCell>
        <mxCell id="1h5ahABLW1QTgXtnkLHX-25" value="" style="endArrow=block;dashed=1;endFill=0;endSize=12;html=1;exitX=0.5;exitY=0.5;exitDx=0;exitDy=0;exitPerimeter=0;entryX=0.5;entryY=0;entryDx=0;entryDy=0;entryPerimeter=0;" parent="1" source="1h5ahABLW1QTgXtnkLHX-4" target="1h5ahABLW1QTgXtnkLHX-5" edge="1">
          <mxGeometry width="160" relative="1" as="geometry">
            <mxPoint x="260" y="345" as="sourcePoint" />
            <mxPoint x="260" y="505" as="targetPoint" />
          </mxGeometry>
        </mxCell>
        <mxCell id="1h5ahABLW1QTgXtnkLHX-27" value="" style="endArrow=block;dashed=1;endFill=0;endSize=12;html=1;entryX=0.5;entryY=0;entryDx=0;entryDy=0;entryPerimeter=0;exitX=0.5;exitY=0.5;exitDx=0;exitDy=0;exitPerimeter=0;" parent="1" source="1h5ahABLW1QTgXtnkLHX-8" target="1h5ahABLW1QTgXtnkLHX-6" edge="1">
          <mxGeometry width="160" relative="1" as="geometry">
            <mxPoint x="170" y="-690" as="sourcePoint" />
            <mxPoint x="330" y="-690" as="targetPoint" />
          </mxGeometry>
        </mxCell>
        <mxCell id="1h5ahABLW1QTgXtnkLHX-28" value="" style="endArrow=classic;html=1;exitX=0.5;exitY=0.5;exitDx=0;exitDy=0;exitPerimeter=0;entryX=0;entryY=0.5;entryDx=0;entryDy=0;" parent="1" source="1h5ahABLW1QTgXtnkLHX-5" target="1h5ahABLW1QTgXtnkLHX-21" edge="1">
          <mxGeometry width="50" height="50" relative="1" as="geometry">
            <mxPoint x="280" y="640" as="sourcePoint" />
            <mxPoint x="330" y="590" as="targetPoint" />
          </mxGeometry>
        </mxCell>
        <mxCell id="1h5ahABLW1QTgXtnkLHX-29" value="" style="endArrow=classic;html=1;exitX=0.5;exitY=0.5;exitDx=0;exitDy=0;exitPerimeter=0;entryX=0;entryY=0.5;entryDx=0;entryDy=0;" parent="1" source="1h5ahABLW1QTgXtnkLHX-2" target="1h5ahABLW1QTgXtnkLHX-16" edge="1">
          <mxGeometry width="50" height="50" relative="1" as="geometry">
            <mxPoint x="260" y="720" as="sourcePoint" />
            <mxPoint x="310" y="670" as="targetPoint" />
          </mxGeometry>
        </mxCell>
        <mxCell id="1h5ahABLW1QTgXtnkLHX-30" value="" style="endArrow=classic;html=1;entryX=0;entryY=0.5;entryDx=0;entryDy=0;" parent="1" target="1h5ahABLW1QTgXtnkLHX-15" edge="1">
          <mxGeometry width="50" height="50" relative="1" as="geometry">
            <mxPoint x="175" y="990" as="sourcePoint" />
            <mxPoint x="310" y="850" as="targetPoint" />
          </mxGeometry>
        </mxCell>
        <mxCell id="1h5ahABLW1QTgXtnkLHX-31" value="" style="endArrow=classic;html=1;exitX=0.5;exitY=0.5;exitDx=0;exitDy=0;exitPerimeter=0;entryX=0;entryY=0.5;entryDx=0;entryDy=0;" parent="1" source="1h5ahABLW1QTgXtnkLHX-2" target="1h5ahABLW1QTgXtnkLHX-17" edge="1">
          <mxGeometry width="50" height="50" relative="1" as="geometry">
            <mxPoint x="320" y="1130" as="sourcePoint" />
            <mxPoint x="370" y="1080" as="targetPoint" />
          </mxGeometry>
        </mxCell>
        <mxCell id="1h5ahABLW1QTgXtnkLHX-34" value="Paiement" style="ellipse;whiteSpace=wrap;html=1;fillColor=#f8cecc;strokeColor=#b85450;" parent="1" vertex="1">
          <mxGeometry x="800" y="500" width="140" height="70" as="geometry" />
        </mxCell>
        <mxCell id="1h5ahABLW1QTgXtnkLHX-35" value="modification panier" style="ellipse;whiteSpace=wrap;html=1;fillColor=#fff2cc;strokeColor=#d6b656;" parent="1" vertex="1">
          <mxGeometry x="690" y="1120" width="140" height="70" as="geometry" />
        </mxCell>
        <mxCell id="1h5ahABLW1QTgXtnkLHX-37" value="modification/validation information facturation" style="ellipse;whiteSpace=wrap;html=1;fillColor=#f8cecc;strokeColor=#b85450;" parent="1" vertex="1">
          <mxGeometry x="590" y="500" width="140" height="70" as="geometry" />
        </mxCell>
        <mxCell id="1h5ahABLW1QTgXtnkLHX-40" value="modification de profil" style="ellipse;whiteSpace=wrap;html=1;fillColor=#f8cecc;strokeColor=#b85450;" parent="1" vertex="1">
          <mxGeometry x="370" y="370" width="140" height="70" as="geometry" />
        </mxCell>
        <mxCell id="1h5ahABLW1QTgXtnkLHX-41" value="" style="endArrow=classic;html=1;entryX=0;entryY=0.5;entryDx=0;entryDy=0;exitX=0.5;exitY=0.5;exitDx=0;exitDy=0;exitPerimeter=0;" parent="1" source="1h5ahABLW1QTgXtnkLHX-5" target="1h5ahABLW1QTgXtnkLHX-40" edge="1">
          <mxGeometry width="50" height="50" relative="1" as="geometry">
            <mxPoint x="280" y="460" as="sourcePoint" />
            <mxPoint x="330" y="410" as="targetPoint" />
          </mxGeometry>
        </mxCell>
        <mxCell id="1h5ahABLW1QTgXtnkLHX-44" value="&amp;lt;&amp;lt;include&amp;gt;&amp;gt;" style="html=1;verticalAlign=bottom;labelBackgroundColor=none;endArrow=open;endFill=0;dashed=1;entryX=1;entryY=0.5;entryDx=0;entryDy=0;exitX=0;exitY=0.5;exitDx=0;exitDy=0;" parent="1" source="1h5ahABLW1QTgXtnkLHX-34" target="1h5ahABLW1QTgXtnkLHX-37" edge="1">
          <mxGeometry width="160" relative="1" as="geometry">
            <mxPoint x="770" y="300" as="sourcePoint" />
            <mxPoint x="930" y="300" as="targetPoint" />
          </mxGeometry>
        </mxCell>
        <mxCell id="1h5ahABLW1QTgXtnkLHX-45" value="&amp;lt;&amp;lt;include&amp;gt;&amp;gt;" style="html=1;verticalAlign=bottom;labelBackgroundColor=none;endArrow=open;endFill=0;dashed=1;entryX=1;entryY=0.5;entryDx=0;entryDy=0;exitX=0;exitY=0.5;exitDx=0;exitDy=0;" parent="1" source="1h5ahABLW1QTgXtnkLHX-37" target="1h5ahABLW1QTgXtnkLHX-21" edge="1">
          <mxGeometry width="160" relative="1" as="geometry">
            <mxPoint x="600.0000000000007" y="550" as="sourcePoint" />
            <mxPoint x="529.9999999999995" y="550" as="targetPoint" />
          </mxGeometry>
        </mxCell>
        <mxCell id="1h5ahABLW1QTgXtnkLHX-50" value="paiment diffÃ©rÃ©" style="ellipse;whiteSpace=wrap;html=1;fillColor=#dae8fc;strokeColor=#6c8ebf;" parent="1" vertex="1">
          <mxGeometry x="800" y="35" width="140" height="70" as="geometry" />
        </mxCell>
        <mxCell id="1h5ahABLW1QTgXtnkLHX-51" value="" style="endArrow=classic;html=1;exitX=0.5;exitY=0.5;exitDx=0;exitDy=0;exitPerimeter=0;entryX=0;entryY=0.5;entryDx=0;entryDy=0;" parent="1" source="1h5ahABLW1QTgXtnkLHX-4" target="1h5ahABLW1QTgXtnkLHX-50" edge="1">
          <mxGeometry width="50" height="50" relative="1" as="geometry">
            <mxPoint x="330" y="-130" as="sourcePoint" />
            <mxPoint x="380" y="-180" as="targetPoint" />
          </mxGeometry>
        </mxCell>
        <mxCell id="1h5ahABLW1QTgXtnkLHX-52" value="Extend" style="edgeStyle=none;html=1;startArrow=open;endArrow=none;startSize=12;verticalAlign=bottom;dashed=1;labelBackgroundColor=none;exitX=0.5;exitY=0;exitDx=0;exitDy=0;entryX=0.5;entryY=1;entryDx=0;entryDy=0;" parent="1" source="1h5ahABLW1QTgXtnkLHX-34" target="1h5ahABLW1QTgXtnkLHX-50" edge="1">
          <mxGeometry x="0.0633" width="160" relative="1" as="geometry">
            <mxPoint x="690" y="50" as="sourcePoint" />
            <mxPoint x="850" y="50" as="targetPoint" />
            <mxPoint as="offset" />
          </mxGeometry>
        </mxCell>
        <mxCell id="1h5ahABLW1QTgXtnkLHX-53" value="Attribuer des remises" style="ellipse;whiteSpace=wrap;html=1;fillColor=#d5e8d4;strokeColor=#82b366;" parent="1" vertex="1">
          <mxGeometry x="950" y="-880" width="140" height="70" as="geometry" />
        </mxCell>
        <mxCell id="1h5ahABLW1QTgXtnkLHX-54" value="gestion de produit/catÃ©gorie" style="ellipse;whiteSpace=wrap;html=1;fillColor=#d5e8d4;strokeColor=#82b366;" parent="1" vertex="1">
          <mxGeometry x="930" y="-1050" width="140" height="70" as="geometry" />
        </mxCell>
        <mxCell id="1h5ahABLW1QTgXtnkLHX-56" value="consultation client" style="ellipse;whiteSpace=wrap;html=1;fillColor=#d5e8d4;strokeColor=#82b366;" parent="1" vertex="1">
          <mxGeometry x="940" y="-1170" width="140" height="70" as="geometry" />
        </mxCell>
        <mxCell id="1h5ahABLW1QTgXtnkLHX-80" value="gestion de commande" style="ellipse;whiteSpace=wrap;html=1;fillColor=#d5e8d4;strokeColor=#82b366;" parent="1" vertex="1">
          <mxGeometry x="790" y="-750" width="136" height="60" as="geometry" />
        </mxCell>
        <mxCell id="1h5ahABLW1QTgXtnkLHX-90" value="Gestion du personnel" style="ellipse;whiteSpace=wrap;html=1;fillColor=#d80073;strokeColor=#A50040;fontColor=#ffffff;" parent="1" vertex="1">
          <mxGeometry x="330" y="-1300" width="140" height="70" as="geometry" />
        </mxCell>
        <mxCell id="1h5ahABLW1QTgXtnkLHX-91" value="" style="endArrow=classic;html=1;exitX=1;exitY=0.3333333333333333;exitDx=0;exitDy=0;exitPerimeter=0;entryX=0;entryY=0.5;entryDx=0;entryDy=0;" parent="1" source="1h5ahABLW1QTgXtnkLHX-8" target="1h5ahABLW1QTgXtnkLHX-90" edge="1">
          <mxGeometry width="50" height="50" relative="1" as="geometry">
            <mxPoint x="260" y="-1820" as="sourcePoint" />
            <mxPoint x="310" y="-1870" as="targetPoint" />
          </mxGeometry>
        </mxCell>
        <mxCell id="1h5ahABLW1QTgXtnkLHX-99" value="Connexion" style="ellipse;whiteSpace=wrap;html=1;fillColor=#e1d5e7;strokeColor=#9673a6;" parent="1" vertex="1">
          <mxGeometry x="630" y="-910" width="140" height="70" as="geometry" />
        </mxCell>
        <mxCell id="1h5ahABLW1QTgXtnkLHX-100" value="" style="endArrow=classic;html=1;entryX=0;entryY=0.5;entryDx=0;entryDy=0;" parent="1" target="1h5ahABLW1QTgXtnkLHX-99" edge="1">
          <mxGeometry width="50" height="50" relative="1" as="geometry">
            <mxPoint x="200" y="-860" as="sourcePoint" />
            <mxPoint x="560" y="-930" as="targetPoint" />
          </mxGeometry>
        </mxCell>
        <mxCell id="1h5ahABLW1QTgXtnkLHX-101" value="&amp;lt;&amp;lt;extend&amp;gt;&amp;gt;" style="edgeStyle=none;html=1;startArrow=open;endArrow=none;startSize=12;verticalAlign=bottom;dashed=1;labelBackgroundColor=none;entryX=0;entryY=0.5;entryDx=0;entryDy=0;exitX=1;exitY=0.5;exitDx=0;exitDy=0;" parent="1" source="1h5ahABLW1QTgXtnkLHX-99" target="1h5ahABLW1QTgXtnkLHX-80" edge="1">
          <mxGeometry width="160" relative="1" as="geometry">
            <mxPoint x="510" y="-710" as="sourcePoint" />
            <mxPoint x="350" y="-710" as="targetPoint" />
          </mxGeometry>
        </mxCell>
        <mxCell id="1h5ahABLW1QTgXtnkLHX-102" value="&amp;lt;&amp;lt;extend&amp;gt;&amp;gt;" style="edgeStyle=none;html=1;startArrow=open;endArrow=none;startSize=12;verticalAlign=bottom;dashed=1;labelBackgroundColor=none;entryX=0.5;entryY=1;entryDx=0;entryDy=0;" parent="1" target="1h5ahABLW1QTgXtnkLHX-54" edge="1">
          <mxGeometry width="160" relative="1" as="geometry">
            <mxPoint x="750" y="-890" as="sourcePoint" />
            <mxPoint x="460" y="-1070" as="targetPoint" />
          </mxGeometry>
        </mxCell>
        <mxCell id="1h5ahABLW1QTgXtnkLHX-106" value="&amp;lt;&amp;lt;extend&amp;gt;&amp;gt;" style="edgeStyle=none;html=1;startArrow=open;endArrow=none;startSize=12;verticalAlign=bottom;dashed=1;labelBackgroundColor=none;entryX=0;entryY=0.5;entryDx=0;entryDy=0;" parent="1" source="1h5ahABLW1QTgXtnkLHX-99" target="1h5ahABLW1QTgXtnkLHX-56" edge="1">
          <mxGeometry width="160" relative="1" as="geometry">
            <mxPoint x="660" y="-1180" as="sourcePoint" />
            <mxPoint x="500" y="-1180" as="targetPoint" />
          </mxGeometry>
        </mxCell>
        <mxCell id="1h5ahABLW1QTgXtnkLHX-107" value="&amp;lt;&amp;lt;extend&amp;gt;&amp;gt;" style="edgeStyle=none;html=1;startArrow=open;endArrow=none;startSize=12;verticalAlign=bottom;dashed=1;labelBackgroundColor=none;entryX=0;entryY=0.5;entryDx=0;entryDy=0;exitX=1;exitY=0;exitDx=0;exitDy=0;" parent="1" source="1h5ahABLW1QTgXtnkLHX-99" target="1h5ahABLW1QTgXtnkLHX-53" edge="1">
          <mxGeometry width="160" relative="1" as="geometry">
            <mxPoint x="550" y="-940" as="sourcePoint" />
            <mxPoint x="390" y="-940" as="targetPoint" />
          </mxGeometry>
        </mxCell>
        <mxCell id="1h5ahABLW1QTgXtnkLHX-108" value="&amp;lt;&amp;lt;extend&amp;gt;&amp;gt;" style="edgeStyle=none;html=1;startArrow=open;endArrow=none;startSize=12;verticalAlign=bottom;dashed=1;labelBackgroundColor=none;exitX=1;exitY=0.5;exitDx=0;exitDy=0;entryX=0;entryY=0.5;entryDx=0;entryDy=0;" parent="1" source="1h5ahABLW1QTgXtnkLHX-17" target="1h5ahABLW1QTgXtnkLHX-35" edge="1">
          <mxGeometry width="160" relative="1" as="geometry">
            <mxPoint x="710" y="1070" as="sourcePoint" />
            <mxPoint x="550" y="1070" as="targetPoint" />
          </mxGeometry>
        </mxCell>
        <mxCell id="D0InPZgiRpQinC90ZeT8-4" value="&amp;lt;&amp;lt;extend&amp;gt;&amp;gt;" style="edgeStyle=none;html=1;startArrow=open;endArrow=none;startSize=12;verticalAlign=bottom;dashed=1;labelBackgroundColor=none;entryX=0;entryY=0.5;entryDx=0;entryDy=0;exitX=1;exitY=0.5;exitDx=0;exitDy=0;" parent="1" source="1h5ahABLW1QTgXtnkLHX-15" target="1h5ahABLW1QTgXtnkLHX-20" edge="1">
          <mxGeometry width="160" relative="1" as="geometry">
            <mxPoint x="900" y="980" as="sourcePoint" />
            <mxPoint x="1060" y="980" as="targetPoint" />
          </mxGeometry>
        </mxCell>
        <mxCell id="D0InPZgiRpQinC90ZeT8-5" value="Connexion" style="ellipse;whiteSpace=wrap;html=1;fillColor=#e1d5e7;strokeColor=#9673a6;" parent="1" vertex="1">
          <mxGeometry x="1116" y="500" width="140" height="70" as="geometry" />
        </mxCell>
        <mxCell id="D0InPZgiRpQinC90ZeT8-6" value="&amp;lt;&amp;lt;include&amp;gt;&amp;gt;" style="html=1;verticalAlign=bottom;labelBackgroundColor=none;endArrow=open;endFill=0;dashed=1;exitX=0;exitY=0.5;exitDx=0;exitDy=0;" parent="1" source="D0InPZgiRpQinC90ZeT8-5" target="1h5ahABLW1QTgXtnkLHX-34" edge="1">
          <mxGeometry width="160" relative="1" as="geometry">
            <mxPoint x="1150" y="360" as="sourcePoint" />
            <mxPoint x="1310" y="360" as="targetPoint" />
          </mxGeometry>
        </mxCell>
      </root>
    </mxGraphModel>
  </diagram>
  <diagram id="RybYeWViprWriMRFNoAn" name="Diagramme d&#39;activitÃ©">
    <mxGraphModel dx="1182" dy="764" grid="1" gridSize="10" guides="1" tooltips="1" connect="1" arrows="1" fold="1" page="1" pageScale="1" pageWidth="850" pageHeight="1100" math="0" shadow="0">
      <root>
        <mxCell id="maNcRiwJJqIN86Ik8prz-0" />
        <mxCell id="maNcRiwJJqIN86Ik8prz-1" parent="maNcRiwJJqIN86Ik8prz-0" />
        <mxCell id="56nGl5sM8iVlLTIFz5Gv-0" value="" style="ellipse;html=1;shape=startState;fillColor=#000000;strokeColor=#ff0000;" vertex="1" parent="maNcRiwJJqIN86Ik8prz-1">
          <mxGeometry x="390" y="70" width="30" height="30" as="geometry" />
        </mxCell>
        <mxCell id="56nGl5sM8iVlLTIFz5Gv-1" value="" style="edgeStyle=orthogonalEdgeStyle;html=1;verticalAlign=bottom;endArrow=open;endSize=8;strokeColor=#ff0000;" edge="1" source="56nGl5sM8iVlLTIFz5Gv-0" parent="maNcRiwJJqIN86Ik8prz-1">
          <mxGeometry relative="1" as="geometry">
            <mxPoint x="405" y="160" as="targetPoint" />
          </mxGeometry>
        </mxCell>
        <mxCell id="56nGl5sM8iVlLTIFz5Gv-2" value="Consulter catalogue" style="rounded=1;whiteSpace=wrap;html=1;arcSize=40;fontColor=#000000;fillColor=#ffffc0;strokeColor=#ff0000;" vertex="1" parent="maNcRiwJJqIN86Ik8prz-1">
          <mxGeometry x="345" y="160" width="120" height="40" as="geometry" />
        </mxCell>
        <mxCell id="56nGl5sM8iVlLTIFz5Gv-3" value="" style="edgeStyle=orthogonalEdgeStyle;html=1;verticalAlign=bottom;endArrow=open;endSize=8;strokeColor=#ff0000;" edge="1" source="56nGl5sM8iVlLTIFz5Gv-2" parent="maNcRiwJJqIN86Ik8prz-1">
          <mxGeometry relative="1" as="geometry">
            <mxPoint x="405" y="260" as="targetPoint" />
          </mxGeometry>
        </mxCell>
        <mxCell id="56nGl5sM8iVlLTIFz5Gv-4" value="creation de panier" style="rounded=1;whiteSpace=wrap;html=1;arcSize=40;fontColor=#000000;fillColor=#ffffc0;strokeColor=#ff0000;" vertex="1" parent="maNcRiwJJqIN86Ik8prz-1">
          <mxGeometry x="345" y="260" width="120" height="40" as="geometry" />
        </mxCell>
        <mxCell id="56nGl5sM8iVlLTIFz5Gv-5" value="" style="edgeStyle=orthogonalEdgeStyle;html=1;verticalAlign=bottom;endArrow=open;endSize=8;strokeColor=#ff0000;" edge="1" source="56nGl5sM8iVlLTIFz5Gv-4" parent="maNcRiwJJqIN86Ik8prz-1" target="yi1lLRNpD7gHP7t0LnpB-7">
          <mxGeometry relative="1" as="geometry">
            <mxPoint x="405" y="340" as="targetPoint" />
          </mxGeometry>
        </mxCell>
        <mxCell id="yi1lLRNpD7gHP7t0LnpB-7" value="ajout/modification panier" style="rounded=1;whiteSpace=wrap;html=1;arcSize=40;fontColor=#000000;fillColor=#ffffc0;strokeColor=#ff0000;" vertex="1" parent="maNcRiwJJqIN86Ik8prz-1">
          <mxGeometry x="345" y="380" width="120" height="40" as="geometry" />
        </mxCell>
        <mxCell id="yi1lLRNpD7gHP7t0LnpB-8" value="" style="edgeStyle=orthogonalEdgeStyle;html=1;verticalAlign=bottom;endArrow=open;endSize=8;strokeColor=#ff0000;" edge="1" source="yi1lLRNpD7gHP7t0LnpB-7" parent="maNcRiwJJqIN86Ik8prz-1">
          <mxGeometry relative="1" as="geometry">
            <mxPoint x="405" y="460" as="targetPoint" />
          </mxGeometry>
        </mxCell>
        <mxCell id="yi1lLRNpD7gHP7t0LnpB-9" value="inscrit" style="rhombus;whiteSpace=wrap;html=1;fillColor=#ffffc0;strokeColor=#ff0000;" vertex="1" parent="maNcRiwJJqIN86Ik8prz-1">
          <mxGeometry x="362.5" y="620" width="80" height="40" as="geometry" />
        </mxCell>
        <mxCell id="yi1lLRNpD7gHP7t0LnpB-10" value="no" style="edgeStyle=orthogonalEdgeStyle;html=1;align=left;verticalAlign=bottom;endArrow=open;endSize=8;strokeColor=#ff0000;entryX=0;entryY=0.5;entryDx=0;entryDy=0;" edge="1" source="yi1lLRNpD7gHP7t0LnpB-9" parent="maNcRiwJJqIN86Ik8prz-1" target="yi1lLRNpD7gHP7t0LnpB-14">
          <mxGeometry x="-1" relative="1" as="geometry">
            <mxPoint x="540" y="480" as="targetPoint" />
          </mxGeometry>
        </mxCell>
        <mxCell id="yi1lLRNpD7gHP7t0LnpB-11" value="yes" style="edgeStyle=orthogonalEdgeStyle;html=1;align=left;verticalAlign=top;endArrow=open;endSize=8;strokeColor=#ff0000;" edge="1" source="yi1lLRNpD7gHP7t0LnpB-9" parent="maNcRiwJJqIN86Ik8prz-1">
          <mxGeometry x="-1" relative="1" as="geometry">
            <mxPoint x="403" y="710" as="targetPoint" />
          </mxGeometry>
        </mxCell>
        <mxCell id="yi1lLRNpD7gHP7t0LnpB-14" value="inscription" style="rounded=1;whiteSpace=wrap;html=1;arcSize=40;fontColor=#000000;fillColor=#ffffc0;strokeColor=#ff0000;" vertex="1" parent="maNcRiwJJqIN86Ik8prz-1">
          <mxGeometry x="640" y="620" width="120" height="40" as="geometry" />
        </mxCell>
        <mxCell id="yi1lLRNpD7gHP7t0LnpB-15" value="" style="edgeStyle=orthogonalEdgeStyle;html=1;verticalAlign=bottom;endArrow=open;endSize=8;strokeColor=#ff0000;exitX=0.5;exitY=1;exitDx=0;exitDy=0;entryX=1;entryY=0.5;entryDx=0;entryDy=0;" edge="1" source="yi1lLRNpD7gHP7t0LnpB-14" parent="maNcRiwJJqIN86Ik8prz-1" target="yi1lLRNpD7gHP7t0LnpB-16">
          <mxGeometry relative="1" as="geometry">
            <mxPoint x="600" y="550" as="targetPoint" />
          </mxGeometry>
        </mxCell>
        <mxCell id="yi1lLRNpD7gHP7t0LnpB-16" value="connectÃ©" style="rhombus;whiteSpace=wrap;html=1;fillColor=#ffffc0;strokeColor=#ff0000;" vertex="1" parent="maNcRiwJJqIN86Ik8prz-1">
          <mxGeometry x="365" y="710" width="80" height="40" as="geometry" />
        </mxCell>
        <mxCell id="yi1lLRNpD7gHP7t0LnpB-17" value="no" style="edgeStyle=orthogonalEdgeStyle;html=1;align=left;verticalAlign=bottom;endArrow=open;endSize=8;strokeColor=#ff0000;entryX=0;entryY=0.5;entryDx=0;entryDy=0;exitX=0.5;exitY=1;exitDx=0;exitDy=0;" edge="1" source="yi1lLRNpD7gHP7t0LnpB-16" parent="maNcRiwJJqIN86Ik8prz-1" target="yi1lLRNpD7gHP7t0LnpB-19">
          <mxGeometry x="-0.9298" y="15" relative="1" as="geometry">
            <mxPoint x="520" y="580" as="targetPoint" />
            <Array as="points">
              <mxPoint x="405" y="810" />
            </Array>
            <mxPoint as="offset" />
          </mxGeometry>
        </mxCell>
        <mxCell id="yi1lLRNpD7gHP7t0LnpB-18" value="yes" style="edgeStyle=orthogonalEdgeStyle;html=1;align=left;verticalAlign=top;endArrow=open;endSize=8;strokeColor=#ff0000;entryX=0;entryY=0.5;entryDx=0;entryDy=0;exitX=0;exitY=0.5;exitDx=0;exitDy=0;" edge="1" source="yi1lLRNpD7gHP7t0LnpB-16" parent="maNcRiwJJqIN86Ik8prz-1" target="D1TfngkzvkAKYpGoc1SK-51">
          <mxGeometry x="-1" relative="1" as="geometry">
            <mxPoint x="405" y="830" as="targetPoint" />
            <Array as="points">
              <mxPoint x="365" y="990" />
            </Array>
          </mxGeometry>
        </mxCell>
        <mxCell id="yi1lLRNpD7gHP7t0LnpB-19" value="connexion" style="rounded=1;whiteSpace=wrap;html=1;arcSize=40;fontColor=#000000;fillColor=#ffffc0;strokeColor=#ff0000;" vertex="1" parent="maNcRiwJJqIN86Ik8prz-1">
          <mxGeometry x="640" y="790" width="120" height="40" as="geometry" />
        </mxCell>
        <mxCell id="yi1lLRNpD7gHP7t0LnpB-20" value="" style="edgeStyle=orthogonalEdgeStyle;html=1;verticalAlign=bottom;endArrow=open;endSize=8;strokeColor=#ff0000;exitX=0.5;exitY=1;exitDx=0;exitDy=0;" edge="1" source="yi1lLRNpD7gHP7t0LnpB-19" parent="maNcRiwJJqIN86Ik8prz-1">
          <mxGeometry relative="1" as="geometry">
            <mxPoint x="700" y="870" as="targetPoint" />
          </mxGeometry>
        </mxCell>
        <mxCell id="kTlVBPDqf_YDUmtmGKjb-9" value="calcul panier" style="rounded=1;whiteSpace=wrap;html=1;arcSize=40;fontColor=#000000;fillColor=#ffffc0;strokeColor=#ff0000;" vertex="1" parent="maNcRiwJJqIN86Ik8prz-1">
          <mxGeometry x="345" y="460" width="120" height="40" as="geometry" />
        </mxCell>
        <mxCell id="D1TfngkzvkAKYpGoc1SK-9" value="valider panier" style="rhombus;whiteSpace=wrap;html=1;fillColor=#ffffc0;strokeColor=#ff0000;" vertex="1" parent="maNcRiwJJqIN86Ik8prz-1">
          <mxGeometry x="340" y="520" width="130" height="60" as="geometry" />
        </mxCell>
        <mxCell id="D1TfngkzvkAKYpGoc1SK-10" value="no" style="edgeStyle=orthogonalEdgeStyle;html=1;align=left;verticalAlign=bottom;endArrow=open;endSize=8;strokeColor=#ff0000;exitX=0;exitY=0.5;exitDx=0;exitDy=0;" edge="1" source="D1TfngkzvkAKYpGoc1SK-9" parent="maNcRiwJJqIN86Ik8prz-1">
          <mxGeometry x="-1" relative="1" as="geometry">
            <mxPoint x="210" y="550" as="targetPoint" />
          </mxGeometry>
        </mxCell>
        <mxCell id="D1TfngkzvkAKYpGoc1SK-11" value="yes" style="edgeStyle=orthogonalEdgeStyle;html=1;align=left;verticalAlign=top;endArrow=open;endSize=8;strokeColor=#ff0000;" edge="1" source="D1TfngkzvkAKYpGoc1SK-9" parent="maNcRiwJJqIN86Ik8prz-1">
          <mxGeometry x="-1" relative="1" as="geometry">
            <mxPoint x="405" y="620" as="targetPoint" />
          </mxGeometry>
        </mxCell>
        <mxCell id="D1TfngkzvkAKYpGoc1SK-15" value="Condition" style="rhombus;whiteSpace=wrap;html=1;fillColor=#ffffc0;strokeColor=#ff0000;" vertex="1" parent="maNcRiwJJqIN86Ik8prz-1">
          <mxGeometry x="130" y="530" width="80" height="40" as="geometry" />
        </mxCell>
        <mxCell id="D1TfngkzvkAKYpGoc1SK-16" value="no" style="edgeStyle=orthogonalEdgeStyle;html=1;align=left;verticalAlign=bottom;endArrow=open;endSize=8;strokeColor=#ff0000;" edge="1" source="D1TfngkzvkAKYpGoc1SK-15" parent="maNcRiwJJqIN86Ik8prz-1" target="D1TfngkzvkAKYpGoc1SK-18">
          <mxGeometry x="-0.6" y="10" relative="1" as="geometry">
            <mxPoint x="170" y="600" as="targetPoint" />
            <mxPoint as="offset" />
          </mxGeometry>
        </mxCell>
        <mxCell id="D1TfngkzvkAKYpGoc1SK-17" value="yes" style="edgeStyle=orthogonalEdgeStyle;html=1;align=left;verticalAlign=top;endArrow=open;endSize=8;strokeColor=#ff0000;entryX=0;entryY=0.75;entryDx=0;entryDy=0;exitX=0.5;exitY=0;exitDx=0;exitDy=0;" edge="1" source="D1TfngkzvkAKYpGoc1SK-15" parent="maNcRiwJJqIN86Ik8prz-1" target="yi1lLRNpD7gHP7t0LnpB-7">
          <mxGeometry x="-0.908" y="-20" relative="1" as="geometry">
            <mxPoint x="550" y="600" as="targetPoint" />
            <mxPoint as="offset" />
          </mxGeometry>
        </mxCell>
        <mxCell id="D1TfngkzvkAKYpGoc1SK-18" value="" style="shape=umlDestroy;whiteSpace=wrap;html=1;strokeWidth=3;" vertex="1" parent="maNcRiwJJqIN86Ik8prz-1">
          <mxGeometry x="155" y="620" width="30" height="30" as="geometry" />
        </mxCell>
        <mxCell id="D1TfngkzvkAKYpGoc1SK-19" value="no" style="edgeStyle=orthogonalEdgeStyle;html=1;align=left;verticalAlign=bottom;endArrow=open;endSize=8;strokeColor=#ff0000;" edge="1" source="D1TfngkzvkAKYpGoc1SK-51" parent="maNcRiwJJqIN86Ik8prz-1">
          <mxGeometry x="-1" relative="1" as="geometry">
            <mxPoint x="640" y="990" as="targetPoint" />
          </mxGeometry>
        </mxCell>
        <mxCell id="D1TfngkzvkAKYpGoc1SK-20" value="yes" style="edgeStyle=orthogonalEdgeStyle;html=1;align=left;verticalAlign=top;endArrow=open;endSize=8;strokeColor=#ff0000;" edge="1" source="D1TfngkzvkAKYpGoc1SK-51" parent="maNcRiwJJqIN86Ik8prz-1">
          <mxGeometry x="-1" relative="1" as="geometry">
            <mxPoint x="480" y="1070" as="targetPoint" />
          </mxGeometry>
        </mxCell>
        <mxCell id="D1TfngkzvkAKYpGoc1SK-21" value="modifier donnÃ©es personelles" style="rounded=1;whiteSpace=wrap;html=1;arcSize=40;fontColor=#000000;fillColor=#ffffc0;strokeColor=#ff0000;" vertex="1" parent="maNcRiwJJqIN86Ik8prz-1">
          <mxGeometry x="640" y="970" width="120" height="40" as="geometry" />
        </mxCell>
        <mxCell id="D1TfngkzvkAKYpGoc1SK-22" value="" style="edgeStyle=orthogonalEdgeStyle;html=1;verticalAlign=bottom;endArrow=open;endSize=8;strokeColor=#ff0000;entryX=1;entryY=0.5;entryDx=0;entryDy=0;exitX=0.408;exitY=1;exitDx=0;exitDy=0;exitPerimeter=0;" edge="1" source="D1TfngkzvkAKYpGoc1SK-21" target="D1TfngkzvkAKYpGoc1SK-23" parent="maNcRiwJJqIN86Ik8prz-1">
          <mxGeometry relative="1" as="geometry">
            <mxPoint x="540" y="1090" as="targetPoint" />
          </mxGeometry>
        </mxCell>
        <mxCell id="D1TfngkzvkAKYpGoc1SK-23" value="si professionnel" style="rhombus;whiteSpace=wrap;html=1;fillColor=#ffffc0;strokeColor=#ff0000;" vertex="1" parent="maNcRiwJJqIN86Ik8prz-1">
          <mxGeometry x="410" y="1070" width="140" height="90" as="geometry" />
        </mxCell>
        <mxCell id="D1TfngkzvkAKYpGoc1SK-24" value="no" style="edgeStyle=orthogonalEdgeStyle;html=1;align=left;verticalAlign=bottom;endArrow=open;endSize=8;strokeColor=#ff0000;entryX=0.5;entryY=0;entryDx=0;entryDy=0;" edge="1" source="D1TfngkzvkAKYpGoc1SK-23" parent="maNcRiwJJqIN86Ik8prz-1">
          <mxGeometry x="-1" relative="1" as="geometry">
            <mxPoint x="480" y="1240" as="targetPoint" />
            <Array as="points">
              <mxPoint x="480" y="1220" />
              <mxPoint x="480" y="1220" />
            </Array>
          </mxGeometry>
        </mxCell>
        <mxCell id="D1TfngkzvkAKYpGoc1SK-25" value="yes" style="edgeStyle=orthogonalEdgeStyle;html=1;align=left;verticalAlign=top;endArrow=open;endSize=8;strokeColor=#ff0000;entryX=1;entryY=0.5;entryDx=0;entryDy=0;" edge="1" source="D1TfngkzvkAKYpGoc1SK-23" target="D1TfngkzvkAKYpGoc1SK-26" parent="maNcRiwJJqIN86Ik8prz-1">
          <mxGeometry x="-1" relative="1" as="geometry">
            <mxPoint x="300" y="1120" as="targetPoint" />
          </mxGeometry>
        </mxCell>
        <mxCell id="D1TfngkzvkAKYpGoc1SK-26" value="offre de paiement" style="rounded=1;whiteSpace=wrap;html=1;arcSize=40;fontColor=#000000;fillColor=#ffffc0;strokeColor=#ff0000;" vertex="1" parent="maNcRiwJJqIN86Ik8prz-1">
          <mxGeometry x="180" y="1095" width="120" height="40" as="geometry" />
        </mxCell>
        <mxCell id="D1TfngkzvkAKYpGoc1SK-27" value="" style="edgeStyle=orthogonalEdgeStyle;html=1;verticalAlign=bottom;endArrow=open;endSize=8;strokeColor=#ff0000;entryX=0;entryY=0.5;entryDx=0;entryDy=0;" edge="1" source="D1TfngkzvkAKYpGoc1SK-26" target="D1TfngkzvkAKYpGoc1SK-37" parent="maNcRiwJJqIN86Ik8prz-1">
          <mxGeometry relative="1" as="geometry">
            <mxPoint x="420" y="1260" as="targetPoint" />
            <Array as="points">
              <mxPoint x="240" y="1260" />
            </Array>
          </mxGeometry>
        </mxCell>
        <mxCell id="D1TfngkzvkAKYpGoc1SK-28" value="paiement" style="rounded=1;whiteSpace=wrap;html=1;arcSize=40;fontColor=#000000;fillColor=#ffffc0;strokeColor=#ff0000;" vertex="1" parent="maNcRiwJJqIN86Ik8prz-1">
          <mxGeometry x="415" y="1370" width="120" height="40" as="geometry" />
        </mxCell>
        <mxCell id="D1TfngkzvkAKYpGoc1SK-29" value="" style="shape=line;html=1;strokeWidth=6;strokeColor=#ff0000;" vertex="1" parent="maNcRiwJJqIN86Ik8prz-1">
          <mxGeometry x="385" y="1560" width="200" height="10" as="geometry" />
        </mxCell>
        <mxCell id="D1TfngkzvkAKYpGoc1SK-30" value="" style="edgeStyle=orthogonalEdgeStyle;html=1;verticalAlign=bottom;endArrow=open;endSize=8;strokeColor=#ff0000;exitX=0.795;exitY=0.4;exitDx=0;exitDy=0;exitPerimeter=0;" edge="1" source="D1TfngkzvkAKYpGoc1SK-29" target="D1TfngkzvkAKYpGoc1SK-32" parent="maNcRiwJJqIN86Ik8prz-1">
          <mxGeometry relative="1" as="geometry">
            <mxPoint x="560" y="1659" as="targetPoint" />
            <Array as="points">
              <mxPoint x="560" y="1564" />
            </Array>
          </mxGeometry>
        </mxCell>
        <mxCell id="D1TfngkzvkAKYpGoc1SK-31" value="edition BL" style="rounded=1;whiteSpace=wrap;html=1;arcSize=40;fontColor=#000000;fillColor=#ffffc0;strokeColor=#ff0000;" vertex="1" parent="maNcRiwJJqIN86Ik8prz-1">
          <mxGeometry x="445" y="1650" width="80" height="20" as="geometry" />
        </mxCell>
        <mxCell id="D1TfngkzvkAKYpGoc1SK-32" value="edition facture" style="rounded=1;whiteSpace=wrap;html=1;arcSize=40;fontColor=#000000;fillColor=#ffffc0;strokeColor=#ff0000;" vertex="1" parent="maNcRiwJJqIN86Ik8prz-1">
          <mxGeometry x="530" y="1640" width="85" height="20" as="geometry" />
        </mxCell>
        <mxCell id="D1TfngkzvkAKYpGoc1SK-33" value="" style="edgeStyle=orthogonalEdgeStyle;html=1;verticalAlign=bottom;endArrow=open;endSize=8;strokeColor=#ff0000;entryX=0.935;entryY=0.3;entryDx=0;entryDy=0;entryPerimeter=0;" edge="1" source="D1TfngkzvkAKYpGoc1SK-32" target="D1TfngkzvkAKYpGoc1SK-34" parent="maNcRiwJJqIN86Ik8prz-1">
          <mxGeometry relative="1" as="geometry">
            <mxPoint x="560" y="1710" as="targetPoint" />
          </mxGeometry>
        </mxCell>
        <mxCell id="D1TfngkzvkAKYpGoc1SK-34" value="" style="shape=line;html=1;strokeWidth=6;strokeColor=#ff0000;" vertex="1" parent="maNcRiwJJqIN86Ik8prz-1">
          <mxGeometry x="385" y="1730" width="200" height="10" as="geometry" />
        </mxCell>
        <mxCell id="D1TfngkzvkAKYpGoc1SK-35" value="" style="edgeStyle=orthogonalEdgeStyle;html=1;verticalAlign=bottom;endArrow=open;endSize=8;strokeColor=#ff0000;exitX=0.135;exitY=0.8;exitDx=0;exitDy=0;exitPerimeter=0;" edge="1" source="D1TfngkzvkAKYpGoc1SK-34" parent="maNcRiwJJqIN86Ik8prz-1">
          <mxGeometry relative="1" as="geometry">
            <mxPoint x="412" y="1835" as="targetPoint" />
            <Array as="points" />
          </mxGeometry>
        </mxCell>
        <mxCell id="D1TfngkzvkAKYpGoc1SK-36" value="" style="ellipse;html=1;shape=endState;fillColor=#000000;strokeColor=#ff0000;" vertex="1" parent="maNcRiwJJqIN86Ik8prz-1">
          <mxGeometry x="400" y="1830" width="30" height="30" as="geometry" />
        </mxCell>
        <mxCell id="D1TfngkzvkAKYpGoc1SK-37" value="remise" style="rhombus;whiteSpace=wrap;html=1;fillColor=#ffffc0;strokeColor=#ff0000;" vertex="1" parent="maNcRiwJJqIN86Ik8prz-1">
          <mxGeometry x="430" y="1240" width="90" height="40" as="geometry" />
        </mxCell>
        <mxCell id="D1TfngkzvkAKYpGoc1SK-38" value="no" style="edgeStyle=orthogonalEdgeStyle;html=1;align=left;verticalAlign=bottom;endArrow=open;endSize=8;strokeColor=#ff0000;" edge="1" source="D1TfngkzvkAKYpGoc1SK-37" parent="maNcRiwJJqIN86Ik8prz-1">
          <mxGeometry x="-0.7778" y="-25" relative="1" as="geometry">
            <mxPoint x="475" y="1370" as="targetPoint" />
            <mxPoint as="offset" />
          </mxGeometry>
        </mxCell>
        <mxCell id="D1TfngkzvkAKYpGoc1SK-39" value="yes" style="edgeStyle=orthogonalEdgeStyle;html=1;align=left;verticalAlign=top;endArrow=open;endSize=8;strokeColor=#ff0000;" edge="1" source="D1TfngkzvkAKYpGoc1SK-37" parent="maNcRiwJJqIN86Ik8prz-1">
          <mxGeometry x="-1" relative="1" as="geometry">
            <mxPoint x="630" y="1260" as="targetPoint" />
          </mxGeometry>
        </mxCell>
        <mxCell id="D1TfngkzvkAKYpGoc1SK-40" value="recalcul panier" style="rounded=1;whiteSpace=wrap;html=1;arcSize=40;fontColor=#000000;fillColor=#ffffc0;strokeColor=#ff0000;" vertex="1" parent="maNcRiwJJqIN86Ik8prz-1">
          <mxGeometry x="630" y="1240" width="120" height="40" as="geometry" />
        </mxCell>
        <mxCell id="D1TfngkzvkAKYpGoc1SK-41" value="" style="edgeStyle=orthogonalEdgeStyle;html=1;verticalAlign=bottom;endArrow=open;endSize=8;strokeColor=#ff0000;entryX=1;entryY=0.25;entryDx=0;entryDy=0;exitX=0.5;exitY=1;exitDx=0;exitDy=0;" edge="1" source="D1TfngkzvkAKYpGoc1SK-40" target="D1TfngkzvkAKYpGoc1SK-28" parent="maNcRiwJJqIN86Ik8prz-1">
          <mxGeometry relative="1" as="geometry">
            <mxPoint x="690" y="1340" as="targetPoint" />
            <Array as="points">
              <mxPoint x="690" y="1380" />
            </Array>
          </mxGeometry>
        </mxCell>
        <mxCell id="D1TfngkzvkAKYpGoc1SK-42" value="" style="edgeStyle=orthogonalEdgeStyle;html=1;verticalAlign=bottom;endArrow=open;endSize=8;strokeColor=#ff0000;entryX=0.5;entryY=0;entryDx=0;entryDy=0;exitX=0.485;exitY=0.8;exitDx=0;exitDy=0;exitPerimeter=0;" edge="1" source="D1TfngkzvkAKYpGoc1SK-29" target="D1TfngkzvkAKYpGoc1SK-31" parent="maNcRiwJJqIN86Ik8prz-1">
          <mxGeometry relative="1" as="geometry">
            <mxPoint x="441" y="1676" as="targetPoint" />
            <mxPoint x="440" y="1600" as="sourcePoint" />
            <Array as="points">
              <mxPoint x="482" y="1569" />
              <mxPoint x="485" y="1569" />
            </Array>
          </mxGeometry>
        </mxCell>
        <mxCell id="D1TfngkzvkAKYpGoc1SK-43" value="" style="edgeStyle=orthogonalEdgeStyle;html=1;verticalAlign=bottom;endArrow=open;endSize=8;strokeColor=#ff0000;exitX=0.5;exitY=1;exitDx=0;exitDy=0;" edge="1" source="D1TfngkzvkAKYpGoc1SK-31" parent="maNcRiwJJqIN86Ik8prz-1">
          <mxGeometry relative="1" as="geometry">
            <mxPoint x="487" y="1734" as="targetPoint" />
            <mxPoint x="440" y="1700" as="sourcePoint" />
            <Array as="points">
              <mxPoint x="487" y="1670" />
            </Array>
          </mxGeometry>
        </mxCell>
        <mxCell id="D1TfngkzvkAKYpGoc1SK-44" value="vÃ©rification &lt;br&gt;solde" style="rhombus;whiteSpace=wrap;html=1;fillColor=#ffffc0;strokeColor=#ff0000;" vertex="1" parent="maNcRiwJJqIN86Ik8prz-1">
          <mxGeometry x="427.5" y="1460" width="95" height="60" as="geometry" />
        </mxCell>
        <mxCell id="D1TfngkzvkAKYpGoc1SK-45" value="no" style="edgeStyle=orthogonalEdgeStyle;html=1;align=left;verticalAlign=bottom;endArrow=open;endSize=8;strokeColor=#ff0000;entryX=0;entryY=0.5;entryDx=0;entryDy=0;" edge="1" source="D1TfngkzvkAKYpGoc1SK-44" parent="maNcRiwJJqIN86Ik8prz-1">
          <mxGeometry x="-1" relative="1" as="geometry">
            <mxPoint x="790" y="1490" as="targetPoint" />
            <Array as="points">
              <mxPoint x="790" y="1490" />
            </Array>
          </mxGeometry>
        </mxCell>
        <mxCell id="D1TfngkzvkAKYpGoc1SK-46" value="yes" style="edgeStyle=orthogonalEdgeStyle;html=1;align=left;verticalAlign=top;endArrow=open;endSize=8;strokeColor=#ff0000;entryX=0.445;entryY=0.4;entryDx=0;entryDy=0;entryPerimeter=0;" edge="1" source="D1TfngkzvkAKYpGoc1SK-44" target="D1TfngkzvkAKYpGoc1SK-29" parent="maNcRiwJJqIN86Ik8prz-1">
          <mxGeometry x="-1" relative="1" as="geometry">
            <mxPoint x="480" y="1560" as="targetPoint" />
          </mxGeometry>
        </mxCell>
        <mxCell id="D1TfngkzvkAKYpGoc1SK-47" value="yes" style="edgeStyle=orthogonalEdgeStyle;html=1;align=left;verticalAlign=top;endArrow=open;endSize=8;strokeColor=#ff0000;entryX=0.5;entryY=0;entryDx=0;entryDy=0;" edge="1" source="D1TfngkzvkAKYpGoc1SK-28" target="D1TfngkzvkAKYpGoc1SK-44" parent="maNcRiwJJqIN86Ik8prz-1">
          <mxGeometry x="-1" relative="1" as="geometry">
            <mxPoint x="480" y="1500" as="targetPoint" />
            <mxPoint x="480" y="1440" as="sourcePoint" />
          </mxGeometry>
        </mxCell>
        <mxCell id="D1TfngkzvkAKYpGoc1SK-48" value="message confirmation paiement" style="rounded=1;whiteSpace=wrap;html=1;arcSize=40;fontColor=#000000;fillColor=#ffffc0;strokeColor=#ff0000;" vertex="1" parent="maNcRiwJJqIN86Ik8prz-1">
          <mxGeometry x="350" y="1630" width="90" height="40" as="geometry" />
        </mxCell>
        <mxCell id="D1TfngkzvkAKYpGoc1SK-49" value="" style="edgeStyle=orthogonalEdgeStyle;html=1;verticalAlign=bottom;endArrow=open;endSize=8;strokeColor=#ff0000;entryX=0.05;entryY=0.7;entryDx=0;entryDy=0;entryPerimeter=0;" edge="1" source="D1TfngkzvkAKYpGoc1SK-48" target="D1TfngkzvkAKYpGoc1SK-34" parent="maNcRiwJJqIN86Ik8prz-1">
          <mxGeometry relative="1" as="geometry">
            <mxPoint x="680" y="1590" as="targetPoint" />
          </mxGeometry>
        </mxCell>
        <mxCell id="D1TfngkzvkAKYpGoc1SK-50" value="" style="edgeStyle=orthogonalEdgeStyle;html=1;verticalAlign=bottom;endArrow=open;endSize=8;strokeColor=#ff0000;entryX=0.656;entryY=-0.075;entryDx=0;entryDy=0;entryPerimeter=0;" edge="1" target="D1TfngkzvkAKYpGoc1SK-48" parent="maNcRiwJJqIN86Ik8prz-1">
          <mxGeometry relative="1" as="geometry">
            <mxPoint x="460" y="1745" as="targetPoint" />
            <mxPoint x="409" y="1565" as="sourcePoint" />
          </mxGeometry>
        </mxCell>
        <mxCell id="D1TfngkzvkAKYpGoc1SK-51" value="validation donnÃ©es personnelles" style="rhombus;whiteSpace=wrap;html=1;fillColor=#ffffc0;strokeColor=#ff0000;" vertex="1" parent="maNcRiwJJqIN86Ik8prz-1">
          <mxGeometry x="390" y="940" width="180" height="100" as="geometry" />
        </mxCell>
        <mxCell id="D1TfngkzvkAKYpGoc1SK-53" value="rÃ©ussi" style="rhombus;whiteSpace=wrap;html=1;fillColor=#ffffc0;strokeColor=#ff0000;" vertex="1" parent="maNcRiwJJqIN86Ik8prz-1">
          <mxGeometry x="660" y="870" width="80" height="40" as="geometry" />
        </mxCell>
        <mxCell id="D1TfngkzvkAKYpGoc1SK-54" value="no" style="edgeStyle=orthogonalEdgeStyle;html=1;align=left;verticalAlign=bottom;endArrow=open;endSize=8;strokeColor=#ff0000;entryX=1;entryY=0.5;entryDx=0;entryDy=0;" edge="1" parent="maNcRiwJJqIN86Ik8prz-1" target="yi1lLRNpD7gHP7t0LnpB-19">
          <mxGeometry x="-1" relative="1" as="geometry">
            <mxPoint x="840" y="890" as="targetPoint" />
            <mxPoint x="740" y="890" as="sourcePoint" />
            <Array as="points">
              <mxPoint x="770" y="890" />
              <mxPoint x="770" y="810" />
            </Array>
          </mxGeometry>
        </mxCell>
        <mxCell id="D1TfngkzvkAKYpGoc1SK-55" value="yes" style="edgeStyle=orthogonalEdgeStyle;html=1;align=left;verticalAlign=top;endArrow=open;endSize=8;strokeColor=#ff0000;entryX=0.5;entryY=0;entryDx=0;entryDy=0;" edge="1" source="D1TfngkzvkAKYpGoc1SK-53" parent="maNcRiwJJqIN86Ik8prz-1" target="D1TfngkzvkAKYpGoc1SK-51">
          <mxGeometry x="-0.875" y="-30" relative="1" as="geometry">
            <mxPoint x="500" y="890" as="targetPoint" />
            <mxPoint as="offset" />
          </mxGeometry>
        </mxCell>
        <mxCell id="D1TfngkzvkAKYpGoc1SK-57" value="" style="edgeStyle=orthogonalEdgeStyle;html=1;verticalAlign=bottom;endArrow=open;endSize=8;strokeColor=#ff0000;" edge="1" parent="maNcRiwJJqIN86Ik8prz-1" source="kTlVBPDqf_YDUmtmGKjb-9" target="D1TfngkzvkAKYpGoc1SK-9">
          <mxGeometry relative="1" as="geometry">
            <mxPoint x="590" y="500" as="targetPoint" />
            <mxPoint x="590" y="460" as="sourcePoint" />
          </mxGeometry>
        </mxCell>
        <mxCell id="D1TfngkzvkAKYpGoc1SK-64" value="rÃ©essayer" style="rhombus;whiteSpace=wrap;html=1;fillColor=#ffffc0;strokeColor=#ff0000;" vertex="1" parent="maNcRiwJJqIN86Ik8prz-1">
          <mxGeometry x="790" y="1470" width="80" height="40" as="geometry" />
        </mxCell>
        <mxCell id="D1TfngkzvkAKYpGoc1SK-65" value="no" style="edgeStyle=orthogonalEdgeStyle;html=1;align=left;verticalAlign=bottom;endArrow=open;endSize=8;strokeColor=#ff0000;" edge="1" source="D1TfngkzvkAKYpGoc1SK-64" parent="maNcRiwJJqIN86Ik8prz-1">
          <mxGeometry x="-0.7143" y="20" relative="1" as="geometry">
            <mxPoint x="830" y="1600" as="targetPoint" />
            <mxPoint as="offset" />
          </mxGeometry>
        </mxCell>
        <mxCell id="D1TfngkzvkAKYpGoc1SK-66" value="yes" style="edgeStyle=orthogonalEdgeStyle;html=1;align=left;verticalAlign=top;endArrow=open;endSize=8;strokeColor=#ff0000;entryX=1;entryY=0.75;entryDx=0;entryDy=0;" edge="1" source="D1TfngkzvkAKYpGoc1SK-64" parent="maNcRiwJJqIN86Ik8prz-1" target="D1TfngkzvkAKYpGoc1SK-28">
          <mxGeometry x="-0.8904" y="30" relative="1" as="geometry">
            <mxPoint x="830" y="1570" as="targetPoint" />
            <Array as="points">
              <mxPoint x="830" y="1400" />
            </Array>
            <mxPoint as="offset" />
          </mxGeometry>
        </mxCell>
        <mxCell id="D1TfngkzvkAKYpGoc1SK-69" value="retour acceuil" style="rhombus;whiteSpace=wrap;html=1;fillColor=#ffffc0;strokeColor=#ff0000;" vertex="1" parent="maNcRiwJJqIN86Ik8prz-1">
          <mxGeometry x="775" y="1700" width="110" height="40" as="geometry" />
        </mxCell>
        <mxCell id="D1TfngkzvkAKYpGoc1SK-71" value="yes" style="edgeStyle=orthogonalEdgeStyle;html=1;align=left;verticalAlign=top;endArrow=open;endSize=8;strokeColor=#ff0000;entryX=1;entryY=0.5;entryDx=0;entryDy=0;exitX=1;exitY=0.5;exitDx=0;exitDy=0;" edge="1" source="D1TfngkzvkAKYpGoc1SK-69" parent="maNcRiwJJqIN86Ik8prz-1" target="56nGl5sM8iVlLTIFz5Gv-2">
          <mxGeometry x="-0.9751" y="35" relative="1" as="geometry">
            <mxPoint x="870" y="170" as="targetPoint" />
            <Array as="points">
              <mxPoint x="1110" y="1720" />
              <mxPoint x="1110" y="180" />
            </Array>
            <mxPoint as="offset" />
          </mxGeometry>
        </mxCell>
        <mxCell id="D1TfngkzvkAKYpGoc1SK-58" value="" style="shape=umlDestroy;whiteSpace=wrap;html=1;strokeWidth=3;" vertex="1" parent="maNcRiwJJqIN86Ik8prz-1">
          <mxGeometry x="815" y="1890" width="30" height="30" as="geometry" />
        </mxCell>
        <mxCell id="D1TfngkzvkAKYpGoc1SK-72" value="no" style="edgeStyle=orthogonalEdgeStyle;html=1;align=left;verticalAlign=bottom;endArrow=open;endSize=8;strokeColor=#ff0000;entryX=0.533;entryY=0.467;entryDx=0;entryDy=0;entryPerimeter=0;exitX=0.5;exitY=1;exitDx=0;exitDy=0;" edge="1" parent="maNcRiwJJqIN86Ik8prz-1" source="D1TfngkzvkAKYpGoc1SK-69" target="D1TfngkzvkAKYpGoc1SK-58">
          <mxGeometry x="-0.6924" y="-40" relative="1" as="geometry">
            <mxPoint x="840" y="1680" as="targetPoint" />
            <mxPoint x="831" y="1720" as="sourcePoint" />
            <mxPoint as="offset" />
          </mxGeometry>
        </mxCell>
        <mxCell id="D1TfngkzvkAKYpGoc1SK-73" value="destruction panier" style="rounded=1;whiteSpace=wrap;html=1;arcSize=40;fontColor=#000000;fillColor=#ffffc0;strokeColor=#ff0000;" vertex="1" parent="maNcRiwJJqIN86Ik8prz-1">
          <mxGeometry x="770" y="1600" width="120" height="40" as="geometry" />
        </mxCell>
        <mxCell id="D1TfngkzvkAKYpGoc1SK-74" value="" style="edgeStyle=orthogonalEdgeStyle;html=1;verticalAlign=bottom;endArrow=open;endSize=8;strokeColor=#ff0000;" edge="1" source="D1TfngkzvkAKYpGoc1SK-73" parent="maNcRiwJJqIN86Ik8prz-1">
          <mxGeometry relative="1" as="geometry">
            <mxPoint x="830" y="1700" as="targetPoint" />
          </mxGeometry>
        </mxCell>
        <mxCell id="D1TfngkzvkAKYpGoc1SK-75" value="" style="shape=line;html=1;strokeWidth=6;strokeColor=#ff0000;" vertex="1" parent="maNcRiwJJqIN86Ik8prz-1">
          <mxGeometry x="190" y="1560" width="200" height="10" as="geometry" />
        </mxCell>
        <mxCell id="D1TfngkzvkAKYpGoc1SK-76" value="" style="edgeStyle=orthogonalEdgeStyle;html=1;verticalAlign=bottom;endArrow=open;endSize=8;strokeColor=#ff0000;exitX=0.25;exitY=0.5;exitDx=0;exitDy=0;exitPerimeter=0;" edge="1" source="D1TfngkzvkAKYpGoc1SK-75" parent="maNcRiwJJqIN86Ik8prz-1">
          <mxGeometry relative="1" as="geometry">
            <mxPoint x="240" y="1630" as="targetPoint" />
          </mxGeometry>
        </mxCell>
        <mxCell id="D1TfngkzvkAKYpGoc1SK-77" value="" style="shape=line;html=1;strokeWidth=6;strokeColor=#ff0000;" vertex="1" parent="maNcRiwJJqIN86Ik8prz-1">
          <mxGeometry x="190" y="1730" width="200" height="10" as="geometry" />
        </mxCell>
        <mxCell id="D1TfngkzvkAKYpGoc1SK-79" value="enregistrement de&amp;nbsp;&lt;br&gt;la commande" style="rounded=1;whiteSpace=wrap;html=1;arcSize=40;fontColor=#000000;fillColor=#ffffc0;strokeColor=#ff0000;" vertex="1" parent="maNcRiwJJqIN86Ik8prz-1">
          <mxGeometry x="180" y="1630" width="120" height="40" as="geometry" />
        </mxCell>
        <mxCell id="D1TfngkzvkAKYpGoc1SK-80" value="" style="edgeStyle=orthogonalEdgeStyle;html=1;verticalAlign=bottom;endArrow=open;endSize=8;strokeColor=#ff0000;" edge="1" source="D1TfngkzvkAKYpGoc1SK-79" parent="maNcRiwJJqIN86Ik8prz-1">
          <mxGeometry relative="1" as="geometry">
            <mxPoint x="240" y="1730" as="targetPoint" />
          </mxGeometry>
        </mxCell>
      </root>
    </mxGraphModel>
  </diagram>
</mxfile>
